<?xml version="1.0" encoding="UTF-8"?>
<svg version="1.1" xmlns="http://www.w3.org/2000/svg" width="512" height="512">
<path d="M0 0 C12.46097164 3.52594849 21.1293308 12.63941798 27.81169403 23.39439964 C23.69759968 28.29837565 19.42642194 32.91975771 14.88835418 37.43126488 C14.22423522 38.09552986 13.56011627 38.75979485 12.87587249 39.44418907 C10.70319843 41.61617234 8.52701531 43.78460244 6.35075653 45.95299339 C4.83453631 47.46734647 3.31853826 48.98192201 1.80275238 50.49670982 C-2.170123 54.46578336 -6.14599328 58.43184346 -10.12251008 62.3972683 C-14.18663151 66.45112526 -18.24789219 70.50784601 -22.30939972 74.56432152 C-30.26624924 82.5104749 -38.22626792 90.45344542 -46.18830597 98.39439964 C-44.65543011 101.61754651 -43.0467991 103.77175562 -40.49299347 106.28502464 C-39.77756379 106.99400902 -39.0621341 107.70299339 -38.32502472 108.43346214 C-37.57865754 109.16307152 -36.83229035 109.89268089 -36.06330597 110.64439964 C-35.30920441 111.38947777 -34.55510285 112.13455589 -33.77814972 112.90221214 C-31.91929825 114.73753385 -30.05593593 116.56801874 -28.18830597 118.39439964 C-25.30265192 117.08839189 -23.25670106 115.70558691 -21.03876984 113.45172691 C-20.14308541 112.54932777 -20.14308541 112.54932777 -19.22930634 111.62869835 C-18.58606919 110.97041542 -17.94283204 110.31213249 -17.28010285 109.6339016 C-16.5934404 108.93949974 -15.90677796 108.24509789 -15.19930756 107.52965355 C-13.71032148 106.02302469 -12.22354903 104.51420565 -10.73873627 103.00346375 C-8.39071977 100.61607073 -6.03528849 98.23623927 -3.67744172 95.85855675 C3.02486497 89.09815153 9.71738053 82.32817657 16.39519012 75.54356956 C20.48052162 71.39396879 24.5778129 67.25650566 28.68301666 63.12656784 C30.24743187 61.54785115 31.80715148 59.96446747 33.36212432 58.37644958 C35.5313547 56.16175064 37.71537901 53.96273655 39.9034909 51.7667141 C40.54672805 51.10235847 41.18996521 50.43800285 41.85269439 49.75351524 C42.74837883 48.86380531 42.74837883 48.86380531 43.66215789 47.95612144 C44.17685386 47.43421887 44.69154983 46.9123163 45.22184265 46.3745985 C46.81169403 45.39439964 46.81169403 45.39439964 48.8711499 45.66381168 C58.09064862 49.13482513 65.32620816 56.78096541 69.81169403 65.39439964 C75.64191148 79.55091906 75.58014995 97.30402744 69.81169403 111.39439964 C58.08877028 131.96872853 38.41606073 148.54761485 21.48641676 164.73652842 C14.39894711 171.52203566 7.44348356 178.43705734 0.4904778 185.35983594 C-11.91218274 197.70118883 -24.41630735 209.93405626 -36.98762238 222.10338402 C-49.17187075 233.89836929 -61.29404198 245.75233595 -73.34602082 257.68248558 C-74.09123348 258.42013619 -74.83644615 259.1577868 -75.60424101 259.91779046 C-78.60001572 262.88349345 -81.59558025 265.8494085 -84.59081686 268.81565496 C-97.49822586 281.59554717 -110.45048782 294.32995136 -123.41230404 307.05463034 C-125.50642564 309.11085512 -127.59973841 311.1679007 -129.69295228 313.2250495 C-137.62788897 321.02040851 -145.58546842 328.79146656 -153.57668221 336.52913284 C-155.9977189 338.87469233 -158.40951894 341.22914931 -160.81343377 343.59225082 C-163.57876428 346.30988544 -166.36169105 349.00804431 -169.160097 351.6915967 C-170.1696495 352.66579738 -171.17273294 353.64675557 -172.16857946 354.63496248 C-180.54530588 362.93379397 -180.54530588 362.93379397 -185.6960727 362.99136353 C-186.84850968 362.79436544 -188.00094666 362.59736736 -189.18830597 362.39439964 C-190.35982209 362.23004417 -190.35982209 362.23004417 -191.55500519 362.06236839 C-193.72990869 361.52316329 -195.90004555 360.97900338 -198.06330597 360.39439964 C-198.88339142 360.17364769 -199.70347687 359.95289574 -200.5484134 359.72545433 C-232.60495636 350.65325318 -259.99818907 328.75273177 -276.49543488 299.86144066 C-282.87786961 288.16754313 -288.0979138 274.57853975 -290.18830597 261.39439964 C-290.38764048 260.23284859 -290.58697499 259.07129753 -290.79234993 257.87454796 C-290.70899983 251.30013015 -285.30742475 247.27548253 -280.9689151 242.90343285 C-279.96471983 241.8627973 -278.96222589 240.82051775 -277.96129203 239.77674484 C-275.20657389 236.9148654 -272.42697147 234.07831774 -269.64233172 231.24558425 C-267.25631316 228.81178957 -264.88539157 226.36355541 -262.51453064 223.91500622 C-254.69849288 215.84292599 -246.83544045 207.81750272 -238.959714 199.80370235 C-236.90527295 197.71303544 -234.85164949 195.62156854 -232.7982384 193.52989006 C-220.02045596 180.5155997 -207.2263771 167.51748813 -194.3926574 154.55834007 C-191.42035066 151.55648086 -188.44823958 148.55442817 -185.47639191 145.55211449 C-184.73781388 144.80599419 -183.99923586 144.0598739 -183.23827668 143.29114389 C-171.31736844 131.24330659 -159.49236325 119.10574131 -147.70417719 106.92815816 C-135.57082264 94.39739578 -123.35042703 81.95682276 -111.04364848 69.59630871 C-104.1470995 62.66516338 -97.2937264 55.7009073 -90.53606522 48.63405418 C-36.21213812 -8.08812548 -36.21213812 -8.08812548 0 0 Z " fill="#000000" transform="translate(300.18830597400665,149.60560035705566)"/>
<path d="M0 0 C1.04542969 0.36222656 2.09085937 0.72445313 3.16796875 1.09765625 C13.84507799 5.17236159 23.2914442 11.12556596 31.75 18.75 C32.26369141 19.20971191 32.77738281 19.66942383 33.30664062 20.14306641 C35.94197167 22.6188716 37.63296531 24.35464828 38 28 C36.08744876 30.31870316 34.24187572 32.27297098 32.0625 34.3125 C31.45712402 34.89499512 30.85174805 35.47749023 30.22802734 36.07763672 C28.49810272 37.73260874 26.75199789 39.36846196 25 41 C24.30003906 41.66644531 23.60007813 42.33289062 22.87890625 43.01953125 C20.97493671 44.76236306 19.01584779 46.38732177 17 48 C16.26354248 48.59844727 16.26354248 48.59844727 15.51220703 49.20898438 C-1.21529717 62.65379561 -19.8992543 69.27351021 -40.1081543 75.75170898 C-51.48065122 79.40238196 -62.59317689 83.29079326 -73 89.25 C-74.01054443 89.82524414 -74.01054443 89.82524414 -75.04150391 90.41210938 C-88.66331521 98.32883877 -100.0895846 108.81939412 -110.96875 120.12890625 C-113 122 -113 122 -115 122 C-115.63315012 120.21119723 -116.25599879 118.41874802 -116.875 116.625 C-117.22304687 115.62726563 -117.57109375 114.62953125 -117.9296875 113.6015625 C-125.38496405 88.514829 -121.52176311 62.87776019 -109.25732422 40.17138672 C-106.06018607 34.64996018 -102.20012223 29.78442729 -98 25 C-97.05060547 23.90171875 -97.05060547 23.90171875 -96.08203125 22.78125 C-86.12398765 12.08006882 -73.61615859 4.92049145 -60 0 C-58.22496094 -0.65162109 -58.22496094 -0.65162109 -56.4140625 -1.31640625 C-38.73538699 -6.72555323 -17.38529988 -6.23092416 0 0 Z " fill="#000000" transform="translate(124,4)"/>
<path d="M0 0 C7.57010916 7.57010916 7.96938823 25.2518053 8.1171875 35.41796875 C7.87254432 59.29616198 -1.28757505 80.25128881 -17 98 C-17.60199219 98.69738281 -18.20398438 99.39476562 -18.82421875 100.11328125 C-33.56411177 116.0681763 -55.79751551 125.3552901 -77.265625 126.3828125 C-104.88125803 127.12399557 -128.1872935 119.58506363 -148.4453125 100.45458984 C-149.63734617 99.31045039 -150.81984042 98.15638347 -152 97 C-143.95585655 78.57715151 -117.89486284 62.38362263 -99.84265137 55.13357544 C-94.61773346 53.21020557 -89.31196952 51.53905805 -84 49.875 C-80.93509725 48.90062766 -77.87289222 47.91813257 -74.8125 46.9296875 C-74.07007553 46.69000244 -73.32765106 46.45031738 -72.56272888 46.20336914 C-48.83090535 38.43791256 -29.15407674 27.0659775 -11 10 C-8.89797379 8.14239544 -6.7806781 6.3045254 -4.65625 4.47265625 C-3.04107155 3.0365188 -1.51173949 1.54400223 0 0 Z " fill="#000000" transform="translate(178,56)"/>
<path d="M0 0 C3.32166835 1.57676645 5.52296561 3.27944008 8.12597656 5.89892578 C8.92650452 6.6996048 9.72703247 7.50028381 10.55181885 8.32522583 C11.40612488 9.18985443 12.26043091 10.05448303 13.140625 10.9453125 C14.02280701 11.8303244 14.90498901 12.7153363 15.81390381 13.62716675 C18.15194543 15.97450131 20.48555874 18.32606785 22.81713867 20.67980957 C25.19996526 23.08313927 27.58850348 25.48077767 29.9765625 27.87890625 C34.65631862 32.58071467 39.33031867 37.28818664 44 42 C42.62175583 45.0957554 41.04096882 47.20686289 38.64645386 49.59405518 C37.9537439 50.28951447 37.26103394 50.98497375 36.54733276 51.70150757 C35.78776276 52.45388702 35.02819275 53.20626648 34.24560547 53.98144531 C33.44552063 54.7818222 32.64543579 55.5821991 31.82110596 56.40682983 C29.17451263 59.05202947 26.52090472 61.69007385 23.8671875 64.328125 C22.03115034 66.16043219 20.19555414 67.99318134 18.36038208 69.82635498 C14.02212581 74.15775434 9.67944496 78.48467104 5.33458912 82.80944896 C0.38752156 87.73415149 -4.55385917 92.6645433 -9.4947722 97.59541941 C-19.65686928 107.7366189 -29.82608245 117.87065984 -40 128 C-43.32166835 126.42323355 -45.52296561 124.72055992 -48.12597656 122.10107422 C-48.92650452 121.3003952 -49.72703247 120.49971619 -50.55181885 119.67477417 C-51.83327789 118.37783127 -51.83327789 118.37783127 -53.140625 117.0546875 C-54.02280701 116.1696756 -54.90498901 115.2846637 -55.81390381 114.37283325 C-58.15194543 112.02549869 -60.48555874 109.67393215 -62.81713867 107.32019043 C-65.19996526 104.91686073 -67.58850348 102.51922233 -69.9765625 100.12109375 C-74.65631862 95.41928533 -79.33031867 90.71181336 -84 86 C-82.62175583 82.9042446 -81.04096882 80.79313711 -78.64645386 78.40594482 C-77.9537439 77.71048553 -77.26103394 77.01502625 -76.54733276 76.29849243 C-75.78776276 75.54611298 -75.02819275 74.79373352 -74.24560547 74.01855469 C-73.44552063 73.2181778 -72.64543579 72.4178009 -71.82110596 71.59317017 C-69.17451263 68.94797053 -66.52090472 66.30992615 -63.8671875 63.671875 C-62.03115034 61.83956781 -60.19555414 60.00681866 -58.36038208 58.17364502 C-54.02212581 53.84224566 -49.67944496 49.51532896 -45.33458912 45.19055104 C-40.38752156 40.26584851 -35.44614083 35.3354567 -30.5052278 30.40458059 C-20.34313072 20.2633811 -10.17391755 10.12934016 0 0 Z " fill="#000000" transform="translate(465,13)"/>
<path d="M0 0 C3.35999018 1.45868754 5.55203106 3.30868948 8.12597656 5.89892578 C8.92650452 6.6996048 9.72703247 7.50028381 10.55181885 8.32522583 C11.40612488 9.18985443 12.26043091 10.05448303 13.140625 10.9453125 C14.02280701 11.8303244 14.90498901 12.7153363 15.81390381 13.62716675 C18.15194543 15.97450131 20.48555874 18.32606785 22.81713867 20.67980957 C25.19996526 23.08313927 27.58850348 25.48077767 29.9765625 27.87890625 C34.65631862 32.58071467 39.33031867 37.28818664 44 42 C42.30145963 45.62083128 40.28895218 47.94255354 37.4296875 50.765625 C36.53378906 51.65507812 35.63789063 52.54453125 34.71484375 53.4609375 C33.77769531 54.38132813 32.84054687 55.30171875 31.875 56.25 C30.92011363 57.19484856 29.96568141 58.14015633 29.01171875 59.0859375 C26.67890913 61.39518338 24.34155914 63.69963203 22 66 C16.44560076 61.37508621 11.31474331 56.44639036 6.22265625 51.3203125 C5.41130722 50.50754852 4.59995819 49.69478455 3.76402283 48.85739136 C1.1944741 46.28228262 -1.37155968 43.7037038 -3.9375 41.125 C-5.68791929 39.36956054 -7.438568 37.61434983 -9.18945312 35.859375 C-13.46229302 31.57555918 -17.73225899 27.28889528 -22 23 C-18.7498913 19.1511826 -15.49349707 15.36650119 -11.9140625 11.81640625 C-11.21152344 11.11708984 -10.50898438 10.41777344 -9.78515625 9.69726562 C-9.07230469 8.99279297 -8.35945313 8.28832031 -7.625 7.5625 C-6.88894531 6.83095703 -6.15289062 6.09941406 -5.39453125 5.34570312 C-3.59863926 3.56147277 -1.80044015 1.77963876 0 0 Z " fill="#000000" transform="translate(359,119)"/>
</svg>
