<?xml version="1.0" encoding="UTF-8"?>
<svg version="1.1" xmlns="http://www.w3.org/2000/svg" width="512" height="512">
<path d="M0 0 C-1.2526782 3.39236201 -2.67107535 6.21621196 -4.765625 9.16015625 C-5.31847168 9.94302002 -5.87131836 10.72588379 -6.44091797 11.5324707 C-7.33641357 12.78483521 -7.33641357 12.78483521 -8.25 14.0625 C-9.52876425 15.86970788 -10.8074068 17.67700188 -12.0859375 19.484375 C-12.73916992 20.40412109 -13.39240234 21.32386719 -14.06542969 22.27148438 C-17.02028899 26.43901436 -19.94778005 30.62553305 -22.875 34.8125 C-23.44637695 35.62855713 -24.01775391 36.44461426 -24.60644531 37.28540039 C-29.76638386 44.65684339 -34.90301564 52.04442238 -40.03857422 59.43286133 C-44.91175042 66.44165262 -49.80219731 73.43813173 -54.70214844 80.42822266 C-57.83636879 84.90173932 -60.9622018 89.38090297 -64.078125 93.8671875 C-64.76769287 94.85984619 -65.45726074 95.85250488 -66.16772461 96.87524414 C-67.54219532 98.8553264 -68.91543094 100.83626663 -70.28735352 102.81811523 C-73.21122307 107.03339952 -76.14637271 111.23233308 -79.19921875 115.35546875 C-79.66875977 115.99307129 -80.13830078 116.63067383 -80.62207031 117.28759766 C-81.83103029 118.91884098 -83.05355156 120.54001067 -84.27734375 122.16015625 C-86.15203901 125.25064027 -86.84987893 127.39709423 -87 131 C-85.08333333 134.08333333 -85.08333333 134.08333333 -82 136 C-75.98434946 135.99116645 -72.19489752 132.60924487 -67.625 129.125 C-66.00764388 127.92425302 -64.38913388 126.72505886 -62.76953125 125.52734375 C-61.96338379 124.92776855 -61.15723633 124.32819336 -60.32666016 123.71044922 C-57.03917237 121.2936455 -53.68605521 118.9819203 -50.3125 116.6875 C-49.00106611 115.79201216 -47.68987726 114.89616536 -46.37890625 114 C-45.68684082 113.52691406 -44.99477539 113.05382812 -44.28173828 112.56640625 C-39.7571671 109.46030217 -35.25447149 106.3226479 -30.75 103.1875 C-29.76684814 102.50324951 -28.78369629 101.81899902 -27.77075195 101.11401367 C-20.69210893 96.18435857 -13.62370867 91.24020401 -6.55957031 86.28979492 C0.7457912 81.17242535 8.06619202 76.07680989 15.39404297 70.99169922 C20.18656168 67.6636741 24.96761398 64.32120693 29.7265625 60.9453125 C31.09071289 59.98044922 31.09071289 59.98044922 32.48242188 58.99609375 C34.19767951 57.781595 35.91009855 56.56307355 37.61914062 55.33984375 C38.38677734 54.79714844 39.15441406 54.25445312 39.9453125 53.6953125 C40.61062988 53.22109863 41.27594727 52.74688477 41.96142578 52.25830078 C44.22461116 50.86135977 46.50976763 49.92172696 49 49 C55.39503731 79.75708422 55.39503731 79.75708422 48 92 C41.75077535 99.67640166 34.56308889 106.58595399 27.56944275 113.57772827 C26.43697805 114.71350054 25.30472356 115.84948244 24.17265898 116.98565352 C21.08663704 120.0815999 17.99755607 123.17447754 14.9079026 126.26679921 C11.56666959 129.61196329 8.22826244 132.95994575 4.88941956 136.30749512 C-3.15546056 144.37204813 -11.20510725 152.43183511 -19.255371 160.49101347 C-23.05063486 164.29067023 -26.84541296 168.09081206 -30.64025688 171.89088821 C-43.25819068 184.52581555 -55.87737224 197.15949472 -68.50017643 209.7895565 C-71.76843765 213.05972741 -75.03669352 216.32990366 -78.30493164 219.60009766 C-79.11717209 220.41282185 -79.92941254 221.22554604 -80.76626634 222.06289823 C-93.94594353 235.25088939 -107.11707097 248.44738513 -120.284679 261.6474257 C-133.81507099 275.21087139 -147.35296513 288.76679193 -160.89829534 302.31531966 C-168.49906009 309.91824969 -176.09649792 317.52444053 -183.68556404 325.13904953 C-190.14226138 331.61742964 -196.60571597 338.08897027 -203.07813055 344.55164926 C-206.3793936 347.84836236 -209.6773304 351.14823195 -212.96661758 354.45689774 C-215.97862054 357.48649246 -218.99973514 360.50668138 -222.02831715 363.51970001 C-223.12118279 364.61018374 -224.2106878 365.70404827 -225.29642154 366.80163305 C-232.80373126 374.38577544 -239.08240861 380.55276594 -250.375 380.625 C-251.57898438 380.65851563 -252.78296875 380.69203125 -254.0234375 380.7265625 C-265.30927052 379.46359046 -273.9618053 368.62635467 -281.48828125 361.04296875 C-282.76180338 359.77214734 -284.03591826 358.50191968 -285.31059265 357.23225403 C-287.96694198 354.58177024 -290.61600316 351.92426937 -293.26000977 349.26147461 C-296.63322306 345.86545076 -300.02411327 342.48773766 -303.42068195 339.11509228 C-306.05063678 336.49965516 -308.67091238 333.87468684 -311.28844261 331.24682045 C-312.53453058 329.99808291 -313.78354476 328.7522577 -315.03563881 327.50954247 C-330.10339304 312.53000443 -330.10339304 312.53000443 -331.62890625 303.12109375 C-331.60699219 301.90550781 -331.58507812 300.68992187 -331.5625 299.4375 C-331.56378906 298.21933594 -331.56507813 297.00117188 -331.56640625 295.74609375 C-330.01552764 285.48890352 -322.94172662 279.37319684 -315.91169739 272.40376282 C-314.75474316 271.24219629 -313.59866181 270.07975982 -312.44337672 268.91653317 C-309.27490049 265.73138573 -306.09410186 262.55880156 -302.91108882 259.38819015 C-299.47704367 255.9632022 -296.05453763 252.52671629 -292.63052368 249.09170532 C-285.92416679 242.3675653 -279.20704444 235.65428016 -272.48599599 228.94482819 C-267.02305786 223.49092564 -261.56403896 218.03312893 -256.10779381 212.57253075 C-255.33105777 211.79518177 -254.55432172 211.0178328 -253.75404822 210.21692779 C-252.1761 208.63770066 -250.59816075 207.05846455 -249.02023038 205.47921958 C-234.22435668 190.67194049 -219.41624891 175.87694503 -204.6039293 161.08611997 C-191.89818788 148.39824593 -179.20296556 135.69992593 -166.51538086 122.99389648 C-151.77882119 108.23592336 -137.03578452 93.48447067 -122.28237551 78.74334019 C-120.7086703 77.17090917 -119.13497344 75.59846979 -117.56128502 74.02602196 C-116.78701639 73.25237043 -116.01274777 72.47871891 -115.21501646 71.6816234 C-109.76276969 66.23282836 -104.3151743 60.77940953 -98.86936378 55.32418251 C-92.23060827 48.67420024 -85.58475609 42.03140914 -78.92974827 35.39768998 C-75.53529115 32.01373451 -72.14409088 28.62667966 -68.76150703 25.23085213 C-65.66290617 22.12030344 -62.55516966 19.01919334 -59.43999275 15.92524805 C-58.31669798 14.80640919 -57.1967349 13.68421287 -56.08053932 12.55829147 C-38.65325932 -5.00910356 -23.19376943 -4.82246691 0 0 Z " fill="#000000" transform="translate(339,124)"/>
<path d="M0 0 C4.4266071 3.71015527 8.64214876 7.52148293 12.71484375 11.6171875 C13.21544815 12.11920685 13.71605255 12.6212262 14.23182678 13.13845825 C15.80278598 14.71493671 17.37019877 16.29488573 18.9375 17.875 C20.01343727 18.95596274 21.08960731 20.03669383 22.16601562 21.1171875 C24.78003292 23.74212641 27.39088596 26.37018628 30 29 C15.9988984 45.95770421 0.03251722 61.97193233 -18.70800781 73.55029297 C-22.82524471 76.15448478 -26.7754891 78.99731903 -30.75 81.8125 C-32.42126397 82.98654737 -34.09314772 84.15971294 -35.765625 85.33203125 C-36.61576172 85.92838379 -37.46589844 86.52473633 -38.34179688 87.13916016 C-43.05333266 90.4374083 -47.77712378 93.71802134 -52.5 97 C-61.4981238 103.25443359 -70.4825453 109.52810863 -79.45703125 115.81640625 C-80.19002441 116.3283252 -80.92301758 116.84024414 -81.67822266 117.36767578 C-83.36669917 118.55475822 -85.04770334 119.752491 -86.72412109 120.95654297 C-87.62340332 121.59865723 -88.52268555 122.24077148 -89.44921875 122.90234375 C-90.27123779 123.49394287 -91.09325684 124.08554199 -91.94018555 124.69506836 C-94 126 -94 126 -96 126 C-94.54805252 121.82756144 -92.48758796 118.67634837 -89.875 115.125 C-88.96982585 113.88131924 -88.06629989 112.6364379 -87.1640625 111.390625 C-86.66293945 110.69904297 -86.16181641 110.00746094 -85.64550781 109.29492188 C-82.46335672 104.856907 -79.36200443 100.36233605 -76.25 95.875 C-70.61872843 87.76412046 -64.97160172 79.6648184 -59.30322266 71.57983398 C-56.14274921 67.06917249 -52.9918375 62.55209566 -49.8515625 58.02734375 C-48.79582031 56.50657227 -48.79582031 56.50657227 -47.71875 54.95507812 C-46.37131815 53.0131171 -45.02488321 51.07046379 -43.6796875 49.12695312 C-42.4170385 47.30732983 -41.14844959 45.49181425 -39.87402344 43.68041992 C-38.65874876 41.94220983 -37.46272005 40.19032126 -36.29003906 38.4230957 C-30.0927839 29.37042408 -22.29692807 21.96385367 -14.5 14.3125 C-13.09044462 12.91802615 -11.68158494 11.5228487 -10.2734375 10.12695312 C-6.85691666 6.7431453 -3.43115103 3.36896939 0 0 Z " fill="#000000" transform="translate(387,95)"/>
<path d="M0 0 C4.4266071 3.71015527 8.64214876 7.52148293 12.71484375 11.6171875 C13.21544815 12.11920685 13.71605255 12.6212262 14.23182678 13.13845825 C15.80278598 14.71493671 17.37019877 16.29488573 18.9375 17.875 C20.01343727 18.95596274 21.08960731 20.03669383 22.16601562 21.1171875 C24.78003292 23.74212641 27.39088596 26.37018628 30 29 C23.98662761 36.1468249 17.52216002 42.7701338 10.94970703 49.40039062 C9.55762902 50.8091775 8.17095913 52.2233274 6.78955078 53.64257812 C4.78565436 55.70091539 2.76609403 57.74260866 0.7421875 59.78125 C0.12544159 60.42066528 -0.49130432 61.06008057 -1.1267395 61.71887207 C-1.70769379 62.29697632 -2.28864807 62.87508057 -2.88720703 63.47070312 C-3.39317413 63.98475708 -3.89914124 64.49881104 -4.42044067 65.02844238 C-6 66 -6 66 -8.01600647 65.81037903 C-11.33169401 64.45605826 -13.61896728 61.84887128 -16.11328125 59.35546875 C-16.97399483 58.50617546 -16.97399483 58.50617546 -17.85209656 57.63972473 C-19.0602853 56.44232661 -20.264536 55.24094364 -21.46508789 54.03588867 C-23.30947613 52.19052547 -25.17416731 50.36752625 -27.04101562 48.54492188 C-28.21223571 47.37890672 -29.3822021 46.21163063 -30.55078125 45.04296875 C-31.11211258 44.49803268 -31.67344391 43.95309662 -32.25178528 43.39164734 C-33.7902832 41.82495117 -33.7902832 41.82495117 -36 39 C-35.72117954 35.47404838 -34.12596156 33.75901574 -31.67358398 31.33300781 C-30.9729332 30.63258362 -30.27228241 29.93215942 -29.55039978 29.21051025 C-28.4097683 28.09310455 -28.4097683 28.09310455 -27.24609375 26.953125 C-26.08292381 25.79632233 -26.08292381 25.79632233 -24.89625549 24.6161499 C-22.41695059 22.1536429 -19.92742008 19.70176866 -17.4375 17.25 C-15.7551756 15.58272091 -14.07352633 13.91476031 -12.39257812 12.24609375 C-8.26952125 8.15612098 -4.13801942 4.07483079 0 0 Z " fill="#000000" transform="translate(435,47)"/>
<path d="M0 0 C5.5892398 3.45163319 9.02364638 7.40399301 10.7578125 13.8359375 C11.74463683 19.43890673 11.17162997 24.76982909 8.13745117 29.66381836 C3.6049235 35.73078279 -1.55903467 41.09051784 -6.890625 46.45703125 C-7.78394531 47.38322266 -8.67726563 48.30941406 -9.59765625 49.26367188 C-10.46003906 50.13314453 -11.32242188 51.00261719 -12.2109375 51.8984375 C-12.98969238 52.69064697 -13.76844727 53.48285645 -14.57080078 54.29907227 C-16.765625 55.89453125 -16.765625 55.89453125 -18.72425842 55.64654541 C-22.10871683 54.39975286 -24.37323861 51.75475206 -26.87890625 49.25 C-27.73961983 48.40070671 -27.73961983 48.40070671 -28.61772156 47.53425598 C-29.8259103 46.33685786 -31.030161 45.13547489 -32.23071289 43.93041992 C-34.07510113 42.08505672 -35.93979231 40.2620575 -37.80664062 38.43945312 C-38.97786071 37.27343797 -40.1478271 36.10616188 -41.31640625 34.9375 C-41.87773758 34.39256393 -42.43906891 33.84762787 -43.01741028 33.28617859 C-46.72622717 29.50938492 -46.72622717 29.50938492 -46.89770508 26.83325195 C-45.30019559 24.09746959 -43.33843566 22.07758568 -41.1015625 19.83203125 C-40.63126617 19.35886475 -40.16096985 18.88569824 -39.67642212 18.39819336 C-38.67973221 17.39946497 -37.67925567 16.40450313 -36.67529297 15.41308594 C-35.15626105 13.91000313 -33.65375811 12.39175069 -32.15234375 10.87109375 C-22.90356344 1.59544475 -13.72511774 -5.48616994 0 0 Z " fill="#000000" transform="translate(493.765625,9.10546875)"/>
</svg>
